<svg width="28" height="28" viewBox="0 0 28 28" fill="none" xmlns="http://www.w3.org/2000/svg">
<path d="M4.3657 21.6475C5.7657 23.3333 8.3697 23.3333 13.58 23.3333H14.42C19.6304 23.3333 22.2355 23.3333 23.6355 21.6475M4.3657 21.6475C2.9657 19.9605 3.44637 17.4008 4.40654 12.2791C5.08904 8.63913 5.4297 6.81796 6.72587 5.74229M23.6355 21.6475C25.0355 19.9605 24.5549 17.4008 23.5947 12.2791C22.9122 8.63913 22.5704 6.81796 21.2742 5.74229M21.2742 5.74229C19.9792 4.66663 18.1254 4.66663 14.4212 4.66663H13.5789C9.8747 4.66663 8.02203 4.66663 6.72587 5.74229" stroke="black" stroke-width="1.5"/>
<path d="M10.6984 9.33325C10.9394 10.0164 11.3864 10.6079 11.9777 11.0263C12.5691 11.4447 13.2756 11.6694 14 11.6694C14.7244 11.6694 15.431 11.4447 16.0223 11.0263C16.6137 10.6079 17.0607 10.0164 17.3017 9.33325" stroke="black" stroke-width="1.5" stroke-linecap="round"/>
</svg>
