<svg width="25" height="24" viewBox="0 0 25 24" fill="none" xmlns="http://www.w3.org/2000/svg">
<path d="M4.5 18C4.21667 18 3.97934 17.904 3.788 17.712C3.59667 17.52 3.50067 17.2827 3.5 17C3.49934 16.7173 3.59534 16.48 3.788 16.288C3.98067 16.096 4.218 16 4.5 16H20.5C20.7833 16 21.021 16.096 21.213 16.288C21.405 16.48 21.5007 16.7173 21.5 17C21.4993 17.2827 21.4033 17.5203 21.212 17.713C21.0207 17.9057 20.7833 18.0013 20.5 18H4.5ZM4.5 13C4.21667 13 3.97934 12.904 3.788 12.712C3.59667 12.52 3.50067 12.2827 3.5 12C3.49934 11.7173 3.59534 11.48 3.788 11.288C3.98067 11.096 4.218 11 4.5 11H20.5C20.7833 11 21.021 11.096 21.213 11.288C21.405 11.48 21.5007 11.7173 21.5 12C21.4993 12.2827 21.4033 12.5203 21.212 12.713C21.0207 12.9057 20.7833 13.0013 20.5 13H4.5ZM4.5 8C4.21667 8 3.97934 7.904 3.788 7.712C3.59667 7.52 3.50067 7.28267 3.5 7C3.49934 6.71733 3.59534 6.48 3.788 6.288C3.98067 6.096 4.218 6 4.5 6H20.5C20.7833 6 21.021 6.096 21.213 6.288C21.405 6.48 21.5007 6.71733 21.5 7C21.4993 7.28267 21.4033 7.52033 21.212 7.713C21.0207 7.90567 20.7833 8.00133 20.5 8H4.5Z" fill="black"/>
</svg>
